<svg class="svg-icon" style="width: 1em;height: 1em;vertical-align: middle;fill: rgb(157, 242, 253);overflow: hidden;" viewBox="0 0 1024 1024" version="1.1" xmlns="http://www.w3.org/2000/svg"><path d="M636.096 1016.96c-26.624 0-51.2-14.336-65.536-36.864l-204.8-329.728-327.68-200.704C13.44 433.28-2.88 404.608 1.216 373.888c4.096-30.72 22.528-55.296 51.2-65.536L902.336 5.248c28.672-10.24 61.44-2.048 83.968 20.48 22.528 20.48 30.72 53.248 20.48 83.968l-296.96 854.016c-10.24 28.672-34.816 49.152-65.536 51.2-2.048 2.048-6.144 2.048-8.192 2.048z m-204.8-413.696l202.752 327.68L928.96 85.12l-2.048-2.048-839.68 301.056 337.92 206.848 6.144 12.288c0-2.048 0-2.048 0 0z"  /><path d="M928.96 25.984l58.24 57.664-564.992 570.368-58.24-57.6z"  /></svg>