<svg xmlns="http://www.w3.org/2000/svg" width="165.832" height="81.985" viewBox="0 0 165.832 81.985">
  <g id="Group_701" data-name="Group 701" transform="translate(-1413.903 -5414)">
    <g id="Group_697" data-name="Group 697" transform="translate(1413.903 5428.926)">
      <g id="g710">
        <path id="path702" d="M241.064,17.322h2.383l6.792-6.792.333-2.885a30.534,30.534,0,0,0-49.672,14.9,3.676,3.676,0,0,1,2.383-.141l13.585-2.242s.69-1.145,1.051-1.074a16.946,16.946,0,0,1,23.192-1.764Z" transform="translate(-191.476 -0.004)" fill="#09182a"/>
        <path id="path704" d="M825.1,178.37a30.576,30.576,0,0,0-9.222-14.87l-9.532,9.532a16.95,16.95,0,0,1,6.22,13.444v1.693a8.486,8.486,0,0,1,0,16.972H795.593l-1.693,1.717v10.179l1.693,1.693h16.972A22.076,22.076,0,0,0,825.1,178.37Z" transform="translate(-756.658 -155.831)" fill="#09182a"/>
        <path id="path706" d="M197.022,1047.05h16.972v-13.585H197.022a8.448,8.448,0,0,1-3.5-.765l-2.383.741-6.839,6.793-.6,2.383A21.905,21.905,0,0,0,197.022,1047.05Z" transform="translate(-175.082 -984.257)" fill="#09182a"/>
        <path id="path708" d="M21.932,399.2A22.068,22.068,0,0,0,8.61,438.76l9.842-9.842a8.485,8.485,0,1,1,11.225-11.225l9.842-9.842A22.02,22.02,0,0,0,21.932,399.2Z" transform="translate(0.008 -380.47)" fill="#09182a"/>
      </g>
    </g>
    <path id="icon_1_" d="M67.3,151.513l8.1-51.936a1.87,1.87,0,0,1,3.493-.606l8.71,16.3Zm57.618,12.623L117.189,116.3a1.876,1.876,0,0,0-3.167-1.025L65.3,164.136l26.969,15.138a5.663,5.663,0,0,0,5.45,0ZM103.029,122.4l-6.242-11.878a1.856,1.856,0,0,0-3.307,0L66.045,159.431Z" transform="translate(1454.814 5316.012)" fill="#09182a"/>
  </g>
</svg>
