<svg xmlns="http://www.w3.org/2000/svg" width="92" height="92" viewBox="0 0 92 92">
  <g id="Unofficial_JavaScript_logo_2" transform="translate(0.186 0.186)">
    <path id="Subtraction_1" data-name="Subtraction 1" d="M92,92H0V0H92V92ZM61.8,71.875h0l-7.026,4.082c1.671,3.3,5.939,8.841,15.754,8.841,8.7,0,14.326-4.729,14.326-12.047,0-7.237-4.214-10.46-11.493-13.581L71.2,58.243c-1.052-.456-1.791-.805-2.4-1.133a8.407,8.407,0,0,1-1.653-1.121,3.745,3.745,0,0,1-.958-1.307,4.233,4.233,0,0,1-.309-1.689,3.712,3.712,0,0,1,.29-1.464A3.417,3.417,0,0,1,67,50.354a3.817,3.817,0,0,1,1.3-.782,5.026,5.026,0,0,1,1.715-.284,5.462,5.462,0,0,1,3.157.856,7.829,7.829,0,0,1,2.407,2.849l6.732-4.323c-2.722-4.787-6.514-6.922-12.3-6.922-7.455,0-12.661,4.7-12.661,11.42a11.723,11.723,0,0,0,2.852,8.156,14.93,14.93,0,0,0,3.277,2.7,30.255,30.255,0,0,0,4.254,2.167l2.161.927h0a22.691,22.691,0,0,1,4.625,2.4A3.933,3.933,0,0,1,76.2,72.861a3.642,3.642,0,0,1-.414,1.71,4,4,0,0,1-1.178,1.35,5.756,5.756,0,0,1-1.85.886,8.807,8.807,0,0,1-2.428.318,10.022,10.022,0,0,1-2.871-.395,8.271,8.271,0,0,1-2.3-1.1,9.7,9.7,0,0,1-1.845-1.663,15.351,15.351,0,0,1-1.515-2.1Zm-30.54.749h0l-7.037,4.26c1.7,3.6,5.334,7.9,12.969,7.9,8.325,0,12.909-4.626,12.909-13.026V42.243H41.457v29.4a9.376,9.376,0,0,1-.324,2.672,3.894,3.894,0,0,1-.927,1.665,4.466,4.466,0,0,1-3.381,1.1,4.98,4.98,0,0,1-1.931-.356,4.66,4.66,0,0,1-1.455-.964,8.287,8.287,0,0,1-1.153-1.416c-.359-.538-.7-1.14-1.025-1.711Z" transform="translate(-0.186 -0.186)" fill="#09182a"/>
  </g>
</svg>
