<svg xmlns="http://www.w3.org/2000/svg" width="164.385" height="98.695" viewBox="0 0 164.385 98.695">
  <g id="Page-1" transform="translate(-0.203 -0.287)">
    <g id="Black-Next.js" transform="translate(0.203 0.287)">
      <g id="next-black" transform="translate(0 0)">
        <g id="EXT-_-Type-something" data-name="EXT-+-Type-something" transform="translate(0 0)">
          <path id="EXT" d="M48.942,26.028h31V28.48H51.784V46.938H78.267v2.452H51.784V69.656H80.27v2.452H48.942Zm33.782,0h3.294l14.6,20.265,14.921-20.265L135.832.287,102.49,48.423l17.181,23.685h-3.423L100.617,50.552,84.92,72.108H81.562L98.872,48.423ZM120.9,28.48V26.028H156.23V28.48H139.953V72.108h-2.842V28.48Z" transform="translate(-10.154 -0.287)" fill="#09182a"/>
          <path id="Type-something" d="M.2,32.632H3.756l48.988,72.954L32.5,78.712,3.174,36.117l-.129,42.6H.2Z" transform="translate(-0.203 -6.891)" fill="#09182a"/>
        </g>
        <path id="_.JS" data-name=".JS" d="M183.136,83.881a1.026,1.026,0,1,0-1.016-1.026A1,1,0,0,0,183.136,83.881Zm2.793-2.7A2.78,2.78,0,0,0,188.97,84a2.855,2.855,0,0,0,3.083-3.148V73.824H190.5V80.85c0,1.109-.56,1.7-1.549,1.7a1.386,1.386,0,0,1-1.507-1.371Zm8.15-.09c.111,1.777,1.6,2.914,3.809,2.914,2.364,0,3.843-1.192,3.843-3.093,0-1.495-.844-2.321-2.89-2.8l-1.1-.269c-1.3-.3-1.825-.709-1.825-1.419,0-.9.816-1.481,2.04-1.481a1.9,1.9,0,0,1,2.108,1.488h1.506c-.09-1.674-1.569-2.852-3.594-2.852-2.178,0-3.63,1.178-3.63,2.948,0,1.46.823,2.328,2.627,2.748l1.286.31c1.32.31,1.9.765,1.9,1.522,0,.882-.912,1.522-2.157,1.522-1.334,0-2.26-.6-2.391-1.543Z" transform="translate(-37.346 -15.252)" fill="#09182a"/>
      </g>
    </g>
  </g>
</svg>
