<svg xmlns="http://www.w3.org/2000/svg" width="101.088" height="90.023" viewBox="0 0 101.088 90.023">
  <g id="React-icon" transform="translate(-175.7 -78)">
    <path id="Path_738" data-name="Path 738" d="M276.788,123.022c0-6.7-8.386-13.043-21.244-16.979,2.967-13.1,1.648-23.531-4.162-26.869a9.034,9.034,0,0,0-4.616-1.154v4.595a4.771,4.771,0,0,1,2.349.536c2.8,1.607,4.018,7.727,3.07,15.6-.227,1.937-.6,3.977-1.051,6.058a99.857,99.857,0,0,0-13.084-2.246,100.511,100.511,0,0,0-8.572-10.3c6.717-6.243,13.022-9.664,17.308-9.664V78h0c-5.666,0-13.084,4.039-20.584,11.044-7.5-6.964-14.918-10.962-20.584-10.962v4.595c4.265,0,10.591,3.4,17.308,9.6a97.318,97.318,0,0,0-8.51,10.282,96.221,96.221,0,0,0-13.1,2.267c-.474-2.06-.824-4.059-1.071-5.975-.968-7.871.227-13.991,3.008-15.619a4.586,4.586,0,0,1,2.37-.536V78.1h0a9.188,9.188,0,0,0-4.657,1.154c-5.79,3.338-7.088,13.744-4.1,26.807-12.816,3.956-21.161,10.282-21.161,16.958,0,6.7,8.386,13.043,21.244,16.979-2.967,13.1-1.648,23.531,4.162,26.869a9.058,9.058,0,0,0,4.636,1.154c5.666,0,13.084-4.039,20.584-11.044,7.5,6.965,14.918,10.962,20.584,10.962a9.188,9.188,0,0,0,4.657-1.154c5.79-3.338,7.088-13.744,4.1-26.807C268.443,136.044,276.788,129.7,276.788,123.022Zm-26.828-13.744c-.762,2.658-1.71,5.4-2.782,8.139-.845-1.648-1.731-3.3-2.7-4.945-.948-1.648-1.957-3.256-2.967-4.822C244.438,108.083,247.261,108.619,249.961,109.278Zm-9.437,21.944c-1.607,2.782-3.256,5.419-4.966,7.871-3.07.268-6.182.412-9.313.412-3.111,0-6.223-.144-9.272-.391q-2.565-3.678-4.986-7.83-2.349-4.049-4.286-8.2c1.278-2.761,2.72-5.522,4.265-8.221,1.607-2.782,3.256-5.419,4.966-7.871,3.07-.268,6.182-.412,9.313-.412,3.111,0,6.223.144,9.272.391q2.565,3.678,4.986,7.83,2.349,4.049,4.286,8.2C243.491,125.762,242.069,128.523,240.523,131.223Zm6.655-2.679c1.113,2.761,2.061,5.522,2.844,8.2-2.7.659-5.543,1.216-8.489,1.648,1.01-1.587,2.019-3.214,2.967-4.883C245.448,131.862,246.334,130.193,247.179,128.544ZM226.285,150.53a84.948,84.948,0,0,1-5.728-6.594c1.854.082,3.75.144,5.666.144,1.937,0,3.853-.041,5.728-.144A80.428,80.428,0,0,1,226.285,150.53Zm-15.33-12.136c-2.926-.433-5.749-.968-8.448-1.628.762-2.658,1.71-5.4,2.782-8.139.845,1.648,1.731,3.3,2.7,4.945S209.946,136.827,210.955,138.393Zm15.227-42.879a84.946,84.946,0,0,1,5.728,6.594c-1.854-.082-3.75-.144-5.666-.144-1.937,0-3.853.041-5.728.144A80.433,80.433,0,0,1,226.182,95.514Zm-15.248,12.136c-1.01,1.587-2.019,3.214-2.967,4.883-.948,1.648-1.834,3.3-2.679,4.945-1.113-2.761-2.06-5.522-2.843-8.2C205.145,108.64,207.988,108.083,210.935,107.651Zm-18.648,25.8c-7.294-3.111-12.013-7.191-12.013-10.426s4.719-7.335,12.013-10.426c1.772-.762,3.709-1.442,5.708-2.081a98.966,98.966,0,0,0,4.636,12.548,97.566,97.566,0,0,0-4.574,12.487C196.017,134.911,194.08,134.21,192.287,133.448Zm11.085,29.445c-2.8-1.607-4.018-7.727-3.07-15.6.227-1.937.6-3.977,1.051-6.058a99.853,99.853,0,0,0,13.084,2.246,100.511,100.511,0,0,0,8.572,10.3c-6.717,6.243-13.022,9.664-17.308,9.664A4.917,4.917,0,0,1,203.373,162.893Zm48.875-15.7c.968,7.871-.227,13.991-3.008,15.619a4.586,4.586,0,0,1-2.37.536c-4.265,0-10.591-3.4-17.308-9.6a97.32,97.32,0,0,0,8.51-10.282,96.22,96.22,0,0,0,13.1-2.267A57.684,57.684,0,0,1,252.248,147.192Zm7.933-13.744c-1.772.762-3.709,1.442-5.708,2.081a98.966,98.966,0,0,0-4.636-12.548,97.566,97.566,0,0,0,4.574-12.487c2.04.639,3.977,1.339,5.79,2.1,7.294,3.111,12.013,7.191,12.013,10.426C272.193,126.257,267.475,130.357,260.181,133.448Z" transform="translate(0)" fill="#09182a"/>
    <path id="Path_739" data-name="Path 739" d="M320.8,78.4Z" transform="translate(-115.202 -0.318)" fill="#09182a"/>
    <circle id="Ellipse_36" data-name="Ellipse 36" cx="9.416" cy="9.416" r="9.416" transform="translate(216.807 113.605)" fill="#09182a"/>
    <path id="Path_740" data-name="Path 740" d="M520.5,78.1Z" transform="translate(-273.754 -0.079)" fill="#09182a"/>
  </g>
</svg>
